<svg width="129" height="43" viewBox="0 0 129 43" fill="none" xmlns="http://www.w3.org/2000/svg"><path d="M8.274 42.046c-.332 0-.657-.005-.988-.012a13.774 13.774 0 0 1-2.042-.18 6.401 6.401 0 0 1-1.81-.602 5.91 5.91 0 0 1-1.527-1.117A5.847 5.847 0 0 1 .79 38.6a6.315 6.315 0 0 1-.593-1.822 13.723 13.723 0 0 1-.182-2.06C.01 34.484 0 33.712 0 33.712V8.322s.01-.76.016-.984c.008-.69.069-1.377.18-2.058a6.353 6.353 0 0 1 .595-1.827 5.89 5.89 0 0 1 1.11-1.536A6.084 6.084 0 0 1 5.238.194a13.675 13.675 0 0 1 2.05-.18L8.275 0h112.306l.998.014c.68.008 1.359.068 2.031.179.635.108 1.25.311 1.826.602a6.13 6.13 0 0 1 2.639 2.66 6.38 6.38 0 0 1 .585 1.813c.113.686.176 1.379.189 2.074.004.311.004.646.004.979.009.412.009.804.009 1.2v23.005c0 .4 0 .789-.009 1.182 0 .357 0 .685-.005 1.022a14.052 14.052 0 0 1-.186 2.037 6.311 6.311 0 0 1-.591 1.836 6.024 6.024 0 0 1-1.109 1.523 5.922 5.922 0 0 1-1.53 1.124 6.377 6.377 0 0 1-1.822.605c-.676.11-1.359.17-2.043.179-.327.008-.654.011-.981.012l-1.184.002-111.128-.002Z" fill="#000"/><path d="M26.116 21.353a5.466 5.466 0 0 1 .704-2.615 5.427 5.427 0 0 1 1.871-1.949 5.547 5.547 0 0 0-1.902-1.704 5.511 5.511 0 0 0-2.46-.667c-1.835-.194-3.614 1.104-4.549 1.104-.953 0-2.393-1.085-3.943-1.053A5.783 5.783 0 0 0 13 15.32a5.828 5.828 0 0 0-2.051 2.147c-2.114 3.681-.537 9.09 1.488 12.066 1.013 1.457 2.196 3.084 3.745 3.026 1.516-.063 2.082-.972 3.912-.972 1.813 0 2.344.972 3.924.936 1.627-.027 2.651-1.464 3.629-2.934a12.078 12.078 0 0 0 1.659-3.4 5.233 5.233 0 0 1-2.319-1.935 5.279 5.279 0 0 1-.871-2.9Zm-2.985-8.892a5.377 5.377 0 0 0 1.218-3.837 5.407 5.407 0 0 0-3.506 1.824 5.102 5.102 0 0 0-1.25 3.695 4.456 4.456 0 0 0 1.962-.432 4.483 4.483 0 0 0 1.576-1.25Zm22.145 16.41h-5.172l-1.242 3.69H36.67l4.9-13.65h2.276l4.9 13.65h-2.228l-1.242-3.69ZM40.64 27.17h4.1l-2.02-5.988h-.057L40.64 27.17Zm18.688.416c0 3.093-1.646 5.08-4.129 5.08a3.339 3.339 0 0 1-1.805-.42 3.365 3.365 0 0 1-1.308-1.321h-.047v4.929h-2.03V22.608h1.965v1.656h.037a3.52 3.52 0 0 1 1.334-1.318 3.494 3.494 0 0 1 1.817-.442c2.51 0 4.166 1.997 4.166 5.081Zm-2.087 0c0-2.015-1.035-3.34-2.615-3.34-1.552 0-2.595 1.353-2.595 3.34 0 2.005 1.043 3.348 2.595 3.348 1.58 0 2.615-1.315 2.615-3.348Zm12.977 0c0 3.093-1.646 5.08-4.13 5.08a3.338 3.338 0 0 1-1.805-.421 3.364 3.364 0 0 1-1.307-1.32h-.047v4.929h-2.031V22.608h1.966v1.656h.037a3.52 3.52 0 0 1 1.334-1.318 3.494 3.494 0 0 1 1.816-.442c2.511 0 4.167 1.997 4.167 5.081Zm-2.088 0c0-2.015-1.035-3.34-2.614-3.34-1.552 0-2.596 1.353-2.596 3.34 0 2.005 1.044 3.348 2.596 3.348 1.58 0 2.614-1.315 2.614-3.348Zm9.285 1.172c.15 1.354 1.458 2.243 3.244 2.243 1.712 0 2.943-.89 2.943-2.11 0-1.06-.742-1.694-2.501-2.128l-1.759-.427c-2.492-.605-3.649-1.777-3.649-3.68 0-2.355 2.04-3.972 4.938-3.972 2.868 0 4.834 1.617 4.9 3.973h-2.05c-.123-1.363-1.243-2.185-2.879-2.185-1.635 0-2.755.832-2.755 2.043 0 .965.715 1.533 2.464 1.968l1.495.369c2.784.662 3.941 1.787 3.941 3.784 0 2.554-2.022 4.153-5.239 4.153-3.009 0-5.04-1.562-5.172-4.03h2.079Zm12.715-8.504v2.355h1.882v1.618H90.13v5.487c0 .852.377 1.25 1.204 1.25.224-.005.447-.02.668-.048v1.608a5.55 5.55 0 0 1-1.128.094c-2.003 0-2.784-.756-2.784-2.686v-5.705h-1.44v-1.618h1.439v-2.355h2.04Zm2.971 7.332c0-3.131 1.834-5.099 4.693-5.099 2.869 0 4.693 1.968 4.693 5.1 0 3.139-1.815 5.098-4.693 5.098-2.877 0-4.693-1.96-4.693-5.099Zm7.317 0c0-2.148-.978-3.416-2.624-3.416-1.646 0-2.623 1.278-2.623 3.416 0 2.157.977 3.415 2.623 3.415 1.645 0 2.624-1.258 2.624-3.415Zm3.744-4.977h1.937v1.694h.047c.131-.529.439-.996.872-1.324a2.353 2.353 0 0 1 1.508-.474c.234 0 .467.025.695.076v1.911a2.818 2.818 0 0 0-.912-.123 2.034 2.034 0 0 0-1.582.655 2.057 2.057 0 0 0-.534 1.635v5.903h-2.031v-9.953Zm14.423 7.03c-.273 1.806-2.022 3.046-4.26 3.046-2.879 0-4.665-1.94-4.665-5.052 0-3.121 1.796-5.146 4.579-5.146 2.738 0 4.459 1.892 4.459 4.909v.7h-6.988v.123a2.6 2.6 0 0 0 1.594 2.63c.338.138.702.203 1.068.19.479.045.961-.067 1.373-.32a2.25 2.25 0 0 0 .911-1.08h1.929Zm-6.865-2.97h4.946a2.4 2.4 0 0 0-1.47-2.347 2.367 2.367 0 0 0-.957-.18 2.488 2.488 0 0 0-1.783.735 2.517 2.517 0 0 0-.736 1.791ZM40.385 8.635a2.869 2.869 0 0 1 2.301.899 2.904 2.904 0 0 1 .767 2.36c0 2.095-1.126 3.3-3.068 3.3H38.03v-6.56h2.355Zm-1.343 5.631h1.23a2.039 2.039 0 0 0 1.633-.665 2.066 2.066 0 0 0 .517-1.694 2.078 2.078 0 0 0-.525-1.683 2.056 2.056 0 0 0-1.625-.662h-1.23v4.704Zm5.555-1.55a2.356 2.356 0 0 1 .596-1.8 2.33 2.33 0 0 1 1.725-.768 2.32 2.32 0 0 1 1.725.768 2.346 2.346 0 0 1 .595 1.8 2.358 2.358 0 0 1-.593 1.804 2.332 2.332 0 0 1-1.727.77 2.321 2.321 0 0 1-1.727-.77 2.347 2.347 0 0 1-.594-1.804Zm3.642 0c0-1.072-.479-1.7-1.32-1.7-.844 0-1.319.628-1.319 1.7 0 1.082.475 1.705 1.32 1.705.84 0 1.32-.627 1.32-1.705Zm7.169 2.478H54.4l-1.017-3.646h-.077l-1.012 3.646h-.998l-1.356-4.95h.985l.881 3.777h.073l1.011-3.777h.932l1.012 3.777h.076l.878-3.777h.97l-1.35 4.95Zm2.492-4.95h.934v.786h.073a1.466 1.466 0 0 1 1.468-.882 1.591 1.591 0 0 1 1.292.509 1.613 1.613 0 0 1 .412 1.332v3.204h-.971v-2.959c0-.795-.344-1.19-1.062-1.19a1.124 1.124 0 0 0-1.122.771 1.14 1.14 0 0 0-.053.483v2.896H57.9v-4.95Zm5.726-1.933h.971v6.883h-.97V8.312Zm2.321 4.405a2.356 2.356 0 0 1 .596-1.8 2.333 2.333 0 0 1 1.725-.768 2.32 2.32 0 0 1 1.726.768 2.35 2.35 0 0 1 .595 1.8 2.36 2.36 0 0 1-.594 1.804 2.333 2.333 0 0 1-1.727.769 2.32 2.32 0 0 1-1.727-.77 2.35 2.35 0 0 1-.594-1.803Zm3.643 0c0-1.072-.48-1.7-1.32-1.7-.845 0-1.32.628-1.32 1.7 0 1.082.475 1.705 1.32 1.705.84 0 1.32-.627 1.32-1.705Zm2.022 1.078c0-.891.659-1.405 1.83-1.478l1.333-.077v-.427c0-.523-.344-.818-1.008-.818-.542 0-.918.2-1.025.55h-.94c.099-.85.894-1.396 2.01-1.396 1.234 0 1.93.618 1.93 1.664v3.382h-.935v-.696h-.077a1.66 1.66 0 0 1-1.478.777 1.477 1.477 0 0 1-1.147-.374 1.495 1.495 0 0 1-.493-1.107Zm3.163-.423v-.414l-1.202.077c-.678.046-.985.278-.985.714 0 .446.384.705.912.705a1.154 1.154 0 0 0 1.152-.634c.07-.14.112-.292.123-.448Zm2.243-.655c0-1.564.8-2.554 2.043-2.554a1.614 1.614 0 0 1 1.508.868h.073V8.312h.971v6.882h-.93v-.782h-.077a1.712 1.712 0 0 1-1.545.864c-1.252 0-2.043-.99-2.043-2.559Zm1.003 0c0 1.05.492 1.682 1.315 1.682.818 0 1.324-.64 1.324-1.677 0-1.032-.511-1.682-1.324-1.682-.818 0-1.315.636-1.315 1.678Zm7.61 0a2.358 2.358 0 0 1 .596-1.8 2.33 2.33 0 0 1 1.725-.768 2.32 2.32 0 0 1 1.725.768 2.347 2.347 0 0 1 .595 1.8 2.36 2.36 0 0 1-.593 1.804 2.331 2.331 0 0 1-1.727.77 2.32 2.32 0 0 1-1.727-.77 2.347 2.347 0 0 1-.594-1.804Zm3.642 0c0-1.072-.479-1.7-1.32-1.7-.844 0-1.319.628-1.319 1.7 0 1.082.475 1.705 1.32 1.705.84 0 1.32-.627 1.32-1.705Zm2.302-2.472h.935v.786h.073a1.466 1.466 0 0 1 1.468-.882 1.591 1.591 0 0 1 1.292.509 1.613 1.613 0 0 1 .411 1.332v3.204h-.97v-2.959c0-.795-.344-1.19-1.063-1.19a1.124 1.124 0 0 0-1.122.771c-.052.155-.07.32-.053.483v2.896h-.97v-4.95Zm9.667-1.233v1.255h1.066v.823h-1.066v2.545c0 .519.212.746.696.746.124 0 .247-.008.37-.023v.814a3.157 3.157 0 0 1-.528.05c-1.08 0-1.51-.382-1.51-1.336V11.09h-.781v-.823h.781V9.013h.972Zm2.393-.7h.962v2.728h.077a1.509 1.509 0 0 1 1.501-.887 1.61 1.61 0 0 1 1.278.522 1.633 1.633 0 0 1 .416 1.324v3.196h-.972V12.24c0-.79-.366-1.191-1.052-1.191a1.142 1.142 0 0 0-.91.337 1.158 1.158 0 0 0-.329.918v2.89h-.971V8.313Zm9.897 5.546a2.009 2.009 0 0 1-.808 1.105c-.39.262-.858.378-1.324.327a2.227 2.227 0 0 1-1.725-.748 2.26 2.26 0 0 1-.549-1.807 2.297 2.297 0 0 1 .548-1.814 2.27 2.27 0 0 1 1.721-.772c1.369 0 2.196.941 2.196 2.496v.34h-3.475v.055a1.32 1.32 0 0 0 .343 1 1.304 1.304 0 0 0 .967.418 1.172 1.172 0 0 0 1.171-.6h.935Zm-3.416-1.595h2.485a1.2 1.2 0 0 0-.728-1.191 1.181 1.181 0 0 0-.483-.091 1.247 1.247 0 0 0-.906.37 1.275 1.275 0 0 0-.368.912Z" fill="#fff"/></svg>