<svg width="32" height="32" viewBox="0 0 32 32" fill="none" xmlns="http://www.w3.org/2000/svg"><path opacity=".4" d="M15.999 29.331c-1.026 0-2.05-.39-2.832-1.167l-.973-.973a2.006 2.006 0 0 0-1.42-.585H9.406a4.02 4.02 0 0 1-4.014-4.015v-1.37a2.012 2.012 0 0 0-.587-1.42l-.957-.957a4.02 4.02 0 0 1-.015-5.676l.973-.974c.376-.378.584-.883.586-1.419V9.407a4.02 4.02 0 0 1 4.014-4.016h1.371c.535 0 1.039-.208 1.419-.588l.958-.956a4.018 4.018 0 0 1 5.676-.015l.974.974c.378.377.883.585 1.417.585h1.37a4.02 4.02 0 0 1 4.015 4.016v1.37c.002.534.21 1.04.587 1.42l.957.957a3.99 3.99 0 0 1 1.183 2.833 3.99 3.99 0 0 1-1.156 2.83l-.038.04-.947.946a2.006 2.006 0 0 0-.585 1.419v1.369a4.02 4.02 0 0 1-4.015 4.015h-1.37a2.01 2.01 0 0 0-1.42.586l-.958.958A3.998 3.998 0 0 1 16 29.331" fill="#393939"/><path fill-rule="evenodd" clip-rule="evenodd" d="M13.39 13.401a1.14 1.14 0 0 1-.82.339c-.297 0-.588-.121-.82-.34a1.174 1.174 0 0 1-.348-.827c0-.29.123-.59.34-.82.118-.12.26-.21.4-.258.403-.184.938-.076 1.255.257.113.113.2.237.257.367.063.138.095.296.095.454 0 .318-.127.612-.359.828Zm6.864-1.655a1.17 1.17 0 0 0-1.65 0L11.752 18.6a1.17 1.17 0 0 0 0 1.65 1.165 1.165 0 0 0 1.65 0l6.853-6.853a1.17 1.17 0 0 0 0-1.65Zm-.38 6.606a1.18 1.18 0 0 0-1.285.259c-.07.082-.17.21-.239.36a1.133 1.133 0 0 0-.08.456c0 .117.008.29.08.453.067.15.147.27.252.376.242.224.522.337.834.337.296 0 .586-.12.825-.342.212-.212.328-.506.328-.824 0-.32-.116-.612-.33-.826a1.063 1.063 0 0 0-.385-.25Z" fill="#00F6FF"/></svg>