<svg width="145" height="44" viewBox="0 0 145 44" fill="none" xmlns="http://www.w3.org/2000/svg"><path d="M138.829 43.037H5.339c-2.936 0-5.339-2.42-5.339-5.38V5.38C0 2.42 2.403 0 5.34 0h133.489c2.937 0 5.34 2.42 5.34 5.38v32.278c0 2.959-2.403 5.38-5.34 5.38" fill="#000"/><path d="M50.637 11.021c0 .902-.265 1.62-.796 2.155-.602.637-1.388.955-2.354.955-.925 0-1.71-.322-2.358-.969-.647-.646-.97-1.447-.97-2.403s.323-1.756.97-2.403c.647-.646 1.433-.969 2.358-.969.46 0 .898.09 1.316.27.417.181.751.421 1.002.722l-.564.568c-.424-.511-1.008-.766-1.754-.766a2.43 2.43 0 0 0-1.75.717c-.492.478-.738 1.098-.738 1.861 0 .764.246 1.384.738 1.862a2.427 2.427 0 0 0 1.75.717c.716 0 1.312-.24 1.79-.72.31-.314.49-.75.537-1.309h-2.327v-.775h3.105c.03.169.045.33.045.487" fill="#fff"/><path d="M50.636 11.021h-.107c0 .881-.256 1.565-.764 2.079h-.001v.002c-.584.614-1.335.92-2.278.922-.9-.002-1.653-.31-2.282-.938-.628-.628-.938-1.395-.94-2.327.002-.931.312-1.698.94-2.326.629-.627 1.382-.937 2.282-.939.445 0 .87.088 1.274.262.404.176.724.406.962.692l.082-.07-.076-.075-.563.568.075.076.083-.07c-.444-.535-1.067-.805-1.837-.804-.7 0-1.314.251-1.823.747-.514.498-.773 1.153-.772 1.94 0 .786.258 1.44.772 1.938a2.533 2.533 0 0 0 1.823.747c.74.002 1.37-.251 1.865-.752.332-.335.52-.798.569-1.374l.01-.117h-2.337v-.56h2.998v-.108l-.105.019c.03.163.043.318.043.468h.214c0-.163-.015-.331-.047-.506l-.015-.089H47.38v.991h2.433v-.107l-.106-.01c-.047.542-.218.95-.507 1.241-.458.46-1.022.688-1.714.69a2.32 2.32 0 0 1-1.675-.687c-.47-.459-.705-1.044-.706-1.785.001-.74.235-1.326.706-1.784a2.317 2.317 0 0 1 1.675-.687c.723.002 1.268.243 1.673.728l.075.09.645-.651.07-.07-.064-.075a2.744 2.744 0 0 0-1.041-.751 3.39 3.39 0 0 0-1.358-.28c-.95 0-1.768.336-2.433 1.001-.667.664-1.003 1.499-1.002 2.48-.001.98.335 1.815 1.002 2.479.665.665 1.484 1 2.433 1 .989 0 1.81-.33 2.432-.989l-.078-.074.076.076c.553-.557.828-1.31.827-2.23h-.107Zm4.922-2.696H52.64v2.046h2.632v.776H52.64v2.047h2.918v.793h-3.74V7.532h3.74v.793" fill="#fff"/><path d="M55.56 8.324v-.107h-3.025v2.262h2.631v.56h-2.631v2.263h2.918v.577h-3.527V7.64h3.527v.685h.106v-.107.107h.107v-.9h-3.954v6.67h3.954v-1.008h-2.918v-1.831h2.632v-.991h-2.632V8.432h2.918v-.108h-.106Zm3.471 5.663h-.823V8.324h-1.79v-.793h4.403v.793h-1.79v5.663" fill="#fff"/><path d="M59.032 13.987v-.108h-.717V8.217h-1.79v-.578h4.19v.578h-1.79v5.77h.107v-.108.108h.107V8.432h1.79V7.424H56.31v1.008h1.79v5.663h1.038v-.108h-.107Zm4.975 0V7.531h.823v6.456h-.823" fill="#fff"/><path d="M64.01 13.987h.107V7.64h.61v6.24h-.716v.108h.106-.106v.108h.93V7.424h-1.037v6.67h.107v-.107Zm4.476 0h-.824V8.324h-1.79v-.793h4.403v.793h-1.79v5.663" fill="#fff"/><path d="M68.484 13.987v-.107h-.717V8.217h-1.79V7.64h4.19v.578h-1.79v5.77h.107v-.107.107h.107V8.432h1.79V7.424h-4.617v1.008h1.79v5.663h1.037v-.108h-.107Zm6.035-1.374a2.344 2.344 0 0 0 1.74.725c.687 0 1.268-.242 1.741-.725.475-.484.713-1.103.713-1.854 0-.75-.238-1.369-.713-1.853a2.342 2.342 0 0 0-1.74-.725c-.687 0-1.267.242-1.741.725-.474.484-.711 1.102-.711 1.853 0 .751.237 1.37.71 1.854Zm4.09.54c-.63.653-1.413.978-2.35.978-.936 0-1.72-.325-2.348-.978-.63-.652-.944-1.45-.944-2.394 0-.943.314-1.741.944-2.393.629-.653 1.412-.979 2.349-.979.93 0 1.712.328 2.345.983.632.655.948 1.452.948 2.39 0 .943-.315 1.741-.944 2.393Z" fill="#fff"/><path d="m74.516 12.612-.076.076a2.452 2.452 0 0 0 1.816.757 2.45 2.45 0 0 0 1.817-.757c.495-.504.744-1.155.743-1.929 0-.773-.248-1.425-.743-1.928a2.45 2.45 0 0 0-1.817-.758 2.451 2.451 0 0 0-1.816.758c-.494.503-.744 1.155-.742 1.928-.002.774.248 1.425.742 1.93l.076-.077.075-.075c-.453-.465-.68-1.049-.68-1.778 0-.728.227-1.313.68-1.777a2.237 2.237 0 0 1 1.665-.694 2.24 2.24 0 0 1 1.665.694c.454.464.68 1.049.681 1.777 0 .729-.227 1.313-.681 1.778a2.235 2.235 0 0 1-1.665.693 2.237 2.237 0 0 1-1.665-.693l-.075.075Zm4.09.54-.077-.074c-.612.632-1.36.945-2.273.946-.912-.002-1.66-.314-2.272-.946l-.003-.003.003.003c-.611-.634-.913-1.4-.913-2.319 0-.92.302-1.684.913-2.318.611-.633 1.36-.945 2.272-.946.906 0 1.653.315 2.27.95.612.637.916 1.401.917 2.314-.001.92-.304 1.685-.914 2.32l.077.074.077.075c.647-.67.974-1.501.974-2.469 0-.962-.328-1.79-.979-2.464-.65-.675-1.466-1.017-2.422-1.016-.96 0-1.778.34-2.425 1.012-.649.67-.975 1.5-.974 2.468 0 .968.325 1.799.974 2.469l.003.003-.003-.003c.647.672 1.464 1.012 2.425 1.01.961.002 1.779-.338 2.427-1.01l-.077-.075Zm2.1.835V7.531h1.001l3.114 5.022h.036l-.036-1.244V7.531h.824v6.456h-.86l-3.257-5.265h-.036l.036 1.244v4.021h-.823" fill="#fff"/><path d="M80.71 13.987h.107V7.64h.836l3.114 5.022h.204l-.038-1.353v-3.67h.61v6.24h-.693l-3.258-5.265h-.204l.038 1.354v3.911h-.716v.108h.107-.107v.108h.93v-4.13l-.036-1.246-.107.003v.107h.036v-.107l-.09.057 3.288 5.316h1.026V7.424h-1.038v3.887l.036 1.245.107-.003v-.107h-.036v.107l.09-.057-3.145-5.072h-1.168v6.67h.107v-.107Zm33.491 18.29h1.992v-13.45h-1.992v13.45Zm17.948-8.604-2.284 5.831h-.069l-2.37-5.831h-2.147l3.555 8.15-2.027 4.534h2.08l5.478-12.684h-2.216Zm-11.301 7.077c-.653 0-1.563-.328-1.563-1.142 0-1.038 1.134-1.436 2.112-1.436.877 0 1.288.19 1.821.45-.155 1.246-1.219 2.128-2.37 2.128Zm.241-7.372c-1.443 0-2.937.64-3.555 2.06l1.768.744c.378-.744 1.082-.987 1.821-.987 1.03 0 2.078.623 2.095 1.731v.138c-.361-.207-1.133-.519-2.078-.519-1.906 0-3.848 1.055-3.848 3.028 0 1.8 1.564 2.96 3.315 2.96 1.34 0 2.078-.606 2.543-1.315h.068v1.038h1.923v-5.157c0-2.388-1.768-3.72-4.052-3.72Zm-12.316 1.932h-2.834V20.7h2.834c1.49 0 2.336 1.242 2.336 2.305 0 1.042-.846 2.305-2.336 2.305Zm-.051-6.482h-4.774v13.45h1.991v-5.096h2.783c2.209 0 4.38-1.611 4.38-4.177s-2.171-4.177-4.38-4.177ZM82.685 30.753c-1.376 0-2.529-1.162-2.529-2.756 0-1.612 1.153-2.791 2.53-2.791 1.358 0 2.425 1.179 2.425 2.79 0 1.596-1.067 2.757-2.426 2.757Zm2.288-6.327h-.068c-.448-.537-1.308-1.023-2.392-1.023-2.27 0-4.353 2.01-4.353 4.594 0 2.565 2.082 4.558 4.353 4.558 1.084 0 1.944-.485 2.392-1.04h.069v.66c0 1.75-.93 2.686-2.426 2.686-1.222 0-1.979-.884-2.289-1.63l-1.737.728c.499 1.214 1.824 2.705 4.026 2.705 2.34 0 4.318-1.387 4.318-4.767V23.68h-1.892v.745Zm3.27 7.852h1.995V18.827h-1.996v13.45Zm4.937-4.437c-.052-1.769 1.36-2.67 2.374-2.67.792 0 1.463.399 1.686.971l-4.06 1.699Zm6.194-1.526c-.378-1.023-1.532-2.912-3.889-2.912-2.34 0-4.283 1.855-4.283 4.576 0 2.566 1.926 4.576 4.507 4.576 2.082 0 3.287-1.282 3.785-2.028l-1.548-1.04c-.516.763-1.222 1.266-2.237 1.266-1.015 0-1.737-.468-2.202-1.387l6.073-2.53-.206-.52Zm-48.386-1.508v1.942H55.6c-.137 1.092-.499 1.889-1.05 2.444-.67.676-1.72 1.421-3.56 1.421-2.84 0-5.059-2.305-5.059-5.165s2.22-5.166 5.058-5.166c1.532 0 2.65.607 3.476 1.387l1.359-1.37c-1.153-1.109-2.684-1.958-4.835-1.958-3.888 0-7.157 3.19-7.157 7.107 0 3.917 3.269 7.106 7.157 7.106 2.1 0 3.682-.693 4.92-1.993 1.274-1.283 1.67-3.085 1.67-4.541 0-.451-.035-.867-.104-1.214h-6.486Zm11.832 5.946c-1.377 0-2.564-1.144-2.564-2.774 0-1.646 1.187-2.773 2.564-2.773 1.376 0 2.563 1.127 2.563 2.773 0 1.63-1.187 2.774-2.563 2.774Zm0-7.35c-2.513 0-4.56 1.924-4.56 4.576 0 2.635 2.047 4.576 4.56 4.576 2.511 0 4.559-1.941 4.559-4.576 0-2.652-2.048-4.576-4.56-4.576Zm9.945 7.35c-1.376 0-2.563-1.144-2.563-2.774 0-1.646 1.187-2.773 2.563-2.773 1.377 0 2.564 1.127 2.564 2.773 0 1.63-1.187 2.774-2.564 2.774Zm0-7.35c-2.512 0-4.559 1.924-4.559 4.576 0 2.635 2.047 4.576 4.56 4.576 2.511 0 4.559-1.941 4.559-4.576 0-2.652-2.048-4.576-4.56-4.576Z" fill="#fff"/><path d="M13.441 11.268c-.276.25-.441.667-.441 1.22v-.124 18.268-.12c0 .511.141.906.38 1.16l.062.06c.194.175.442.268.727.268.278 0 .591-.089.922-.277l11.944-6.811 4.102-2.34c.522-.297.814-.68.863-1.07V21.5c-.049-.392-.341-.774-.862-1.072l-4.104-2.34-11.943-6.81c-.331-.189-.644-.278-.924-.278-.284 0-.532.093-.726.268Z" fill="#00C1FF"/><path d="m13.415 32-.057-.06c-.225-.261-.358-.666-.358-1.191v.123V12.13v.124c0-.568.155-.996.415-1.253L23 21.5 13.415 32Z" fill="url(#a)"/><path d="M26.657 25 23 21.5l3.657-3.5 4.415 2.4c.56.305.875.698.928 1.1v.001c-.053.4-.367.794-.928 1.098L26.657 25" fill="url(#b)"/><path d="M13.749 32a1.14 1.14 0 0 1-.749-.256L23.5 22l3.5 3.25-12.302 6.486c-.34.18-.663.264-.95.264Z" fill="url(#c)"/><path d="M23.5 22 13 11.28c.2-.183.455-.28.748-.28.288 0 .61.094.951.291L27 18.426 23.5 22" fill="url(#d)"/><path d="M13.804 32c-.29 0-.544-.09-.742-.26l-.003-.003-.054-.05L13 31.68l.062-.06c.198.171.451.262.742.262.283 0 .603-.087.94-.27L26.922 25l.078.075-.079.043-12.177 6.613c-.307.166-.6.253-.863.267a1.631 1.631 0 0 1-.077.002" fill="url(#e)"/><path d="M27.077 25 27 24.934l4.131-2.013c.525-.255.82-.585.869-.921a.777.777 0 0 1-.096.366c-.128.242-.386.47-.773.659L27.078 25" fill="url(#f)"/><path d="M32 22c-.05-.449-.344-.888-.868-1.229L27 18.088l.077-.088 4.055 2.633c.578.376.868.872.868 1.367" fill="url(#g)"/><path d="m26.922 18-12.178-6.613c-.338-.183-.658-.27-.942-.27-.29 0-.543.09-.74.26L13 11.32l.06-.057.002-.001a1.1 1.1 0 0 1 .734-.261h.006c.284 0 .604.087.942.27L27 17.925l-.078.075" fill="url(#h)"/><defs><linearGradient id="a" x1="19.126" y1="11.931" x2="10.126" y2="20.173" gradientUnits="userSpaceOnUse"><stop stop-color="#00A0FF"/><stop offset=".007" stop-color="#00A1FF"/><stop offset=".26" stop-color="#00BEFF"/><stop offset=".512" stop-color="#00D2FF"/><stop offset=".76" stop-color="#00DFFF"/><stop offset="1" stop-color="#00E3FF"/></linearGradient><linearGradient id="b" x1="32.683" y1="21.439" x2="11.258" y2="21.439" gradientUnits="userSpaceOnUse"><stop stop-color="#FFE000"/><stop offset=".409" stop-color="#FFBD00"/><stop offset=".775" stop-color="orange"/><stop offset="1" stop-color="#FF9C00"/></linearGradient><linearGradient id="c" x1="25.142" y1="25.089" x2="10.969" y2="40.298" gradientUnits="userSpaceOnUse"><stop stop-color="#FF3A44"/><stop offset="1" stop-color="#C31162"/></linearGradient><linearGradient id="d" x1="10.294" y1="9.692" x2="17.257" y2="16.495" gradientUnits="userSpaceOnUse"><stop stop-color="#32A071"/><stop offset=".069" stop-color="#2DA771"/><stop offset=".476" stop-color="#15CF74"/><stop offset=".801" stop-color="#06E775"/><stop offset="1" stop-color="#00F076"/></linearGradient><linearGradient id="e" x1="25.075" y1="27.135" x2="13.487" y2="39.297" gradientUnits="userSpaceOnUse"><stop stop-color="#CC2E36"/><stop offset="1" stop-color="#9C0E4E"/></linearGradient><linearGradient id="f" x1="32.639" y1="21.999" x2="12.589" y2="21.999" gradientUnits="userSpaceOnUse"><stop stop-color="#E0C500"/><stop offset=".409" stop-color="#E0A600"/><stop offset=".775" stop-color="#E09100"/><stop offset="1" stop-color="#E08900"/></linearGradient><linearGradient id="g" x1="32.639" y1="22.001" x2="12.59" y2="22.001" gradientUnits="userSpaceOnUse"><stop stop-color="#FFE840"/><stop offset=".409" stop-color="#FFCE40"/><stop offset=".775" stop-color="#FFBC40"/><stop offset="1" stop-color="#FFB540"/></linearGradient><linearGradient id="h" x1="10.367" y1="12.006" x2="15.541" y2="17.437" gradientUnits="userSpaceOnUse"><stop stop-color="#65B895"/><stop offset=".069" stop-color="#62BD95"/><stop offset=".476" stop-color="#50DB97"/><stop offset=".801" stop-color="#44ED98"/><stop offset="1" stop-color="#40F498"/></linearGradient></defs></svg>