<svg width="21" height="21" viewBox="0 0 21 21" fill="none" xmlns="http://www.w3.org/2000/svg"><path d="M20.947 6.174c-.05-1.116-.23-1.883-.489-2.548a5.124 5.124 0 0 0-1.214-1.862 5.169 5.169 0 0 0-1.859-1.21c-.669-.259-1.432-.44-2.548-.488C13.713.012 13.356 0 10.504 0 7.652 0 7.295.012 6.175.062 5.06.11 4.292.292 3.627.55a5.125 5.125 0 0 0-1.863 1.214 5.17 5.17 0 0 0-1.21 1.858c-.259.67-.44 1.432-.488 2.548C.012 7.294 0 7.65 0 10.502c0 2.851.012 3.208.062 4.328.049 1.116.23 1.883.488 2.548a5.178 5.178 0 0 0 1.214 1.862 5.167 5.167 0 0 0 1.86 1.21c.668.259 1.431.44 2.547.489 1.12.049 1.477.061 4.33.061 2.85 0 3.208-.012 4.328-.061 1.116-.05 1.883-.23 2.548-.489a5.371 5.371 0 0 0 3.073-3.072c.259-.669.44-1.432.489-2.548.049-1.12.061-1.477.061-4.328s-.004-3.208-.053-4.328Zm-1.892 8.574c-.045 1.026-.217 1.58-.36 1.949A3.484 3.484 0 0 1 16.7 18.69c-.37.143-.927.315-1.95.36-1.107.05-1.44.062-4.242.062S7.37 19.1 6.265 19.05c-1.025-.045-1.58-.217-1.949-.36a3.233 3.233 0 0 1-1.206-.784 3.265 3.265 0 0 1-.784-1.206c-.143-.37-.315-.927-.36-1.949-.05-1.107-.062-1.44-.062-4.242s.012-3.138.062-4.242c.045-1.025.217-1.579.36-1.948a3.19 3.19 0 0 1 .788-1.206 3.26 3.26 0 0 1 1.207-.784c.369-.143.927-.316 1.949-.36 1.108-.05 1.44-.062 4.242-.062 2.807 0 3.14.012 4.243.061 1.026.045 1.58.218 1.949.361.455.168.87.435 1.206.784.35.34.616.75.784 1.206.144.369.316.927.361 1.948.05 1.108.062 1.44.062 4.242s-.013 3.13-.062 4.238Z" fill="#fff"/><path d="M10.5 6a4.501 4.501 0 0 0 0 9 4.501 4.501 0 0 0 0-9Zm0 7.419a2.92 2.92 0 1 1 0-5.839 2.92 2.92 0 0 1 0 5.839ZM18 5.5a1.5 1.5 0 1 1-3 0 1.5 1.5 0 0 1 3 0Z" fill="#fff"/></svg>