<svg width="21" height="21" viewBox="0 0 21 21" fill="none" xmlns="http://www.w3.org/2000/svg"><path d="M19.485 0H1.515C.678 0 0 .678 0 1.515v17.97C0 20.322.678 21 1.515 21h17.97c.837 0 1.515-.678 1.515-1.515V1.515C21 .678 20.322 0 19.485 0ZM7.45 15.873H4.892V8.18h2.557v7.693ZM6.17 7.129h-.016c-.859 0-1.413-.59-1.413-1.329 0-.755.571-1.33 1.446-1.33s1.413.575 1.43 1.33c0 .738-.555 1.329-1.447 1.329Zm10.5 8.744h-2.557v-4.116c0-1.034-.37-1.74-1.296-1.74-.706 0-1.127.476-1.312.936-.067.164-.084.394-.084.624v4.296H8.864s.034-6.972 0-7.693h2.557v1.089c.34-.524.948-1.27 2.305-1.27 1.682 0 2.944 1.1 2.944 3.463v4.411Z" fill="#fff"/></svg>