<svg width="266" height="73" viewBox="0 0 266 73" fill="none" xmlns="http://www.w3.org/2000/svg"><path d="M107.487 29.26v28.647h-5.762V45.45H89.471v12.457h-5.722V29.26h5.722v11.605h12.254V29.26h5.762Zm15.576 5.883c2.192 0 4.153.46 5.884 1.38 1.758.92 3.138 2.259 4.139 4.017 1.001 1.731 1.501 3.774 1.501 6.127 0 2.353-.5 4.396-1.501 6.127a10.377 10.377 0 0 1-4.139 4.017c-1.731.92-3.692 1.38-5.884 1.38-2.191 0-4.165-.46-5.924-1.38-1.731-.947-3.097-2.286-4.098-4.017-1.001-1.731-1.501-3.773-1.501-6.127 0-2.353.5-4.396 1.501-6.127 1.001-1.758 2.367-3.097 4.098-4.017 1.759-.92 3.733-1.38 5.924-1.38Zm0 4.95c-1.596 0-2.948.569-4.057 1.705-1.109 1.109-1.664 2.732-1.664 4.87 0 2.136.555 3.773 1.664 4.909 1.109 1.109 2.461 1.663 4.057 1.663 1.596 0 2.949-.554 4.058-1.663 1.109-1.136 1.664-2.773 1.664-4.91s-.555-3.76-1.664-4.869c-1.109-1.136-2.462-1.704-4.058-1.704Zm25.955-4.95c2.191 0 4.152.46 5.883 1.38 1.759.92 3.138 2.259 4.139 4.017 1.001 1.731 1.502 3.774 1.502 6.127 0 2.353-.501 4.396-1.502 6.127a10.37 10.37 0 0 1-4.139 4.017c-1.731.92-3.692 1.38-5.883 1.38s-4.166-.46-5.924-1.38a10.441 10.441 0 0 1-4.098-4.017c-1.001-1.731-1.502-3.773-1.502-6.127 0-2.353.501-4.396 1.502-6.127 1-1.758 2.367-3.097 4.098-4.017 1.758-.92 3.733-1.38 5.924-1.38Zm0 4.95c-1.596 0-2.949.569-4.058 1.705-1.109 1.109-1.663 2.732-1.663 4.87 0 2.136.554 3.773 1.663 4.909 1.109 1.109 2.462 1.663 4.058 1.663 1.596 0 2.948-.554 4.058-1.663 1.109-1.136 1.663-2.773 1.663-4.91s-.554-3.76-1.663-4.869c-1.11-1.136-2.462-1.704-4.058-1.704Z" fill="#fff"/><path d="M180.572 43.137c1.731.352 3.111 1.177 4.139 2.475 1.055 1.271 1.582 2.773 1.582 4.504 0 2.408-.811 4.315-2.434 5.721-1.596 1.38-3.923 2.07-6.979 2.07h-12.295V29.26h12.051c2.895 0 5.113.636 6.655 1.907 1.569 1.271 2.353 3.057 2.353 5.356 0 1.785-.473 3.246-1.42 4.382-.92 1.136-2.137 1.88-3.652 2.232Zm-10.266-1.867h5.153c1.434 0 2.516-.31 3.247-.933.757-.649 1.136-1.569 1.136-2.759s-.366-2.11-1.096-2.76c-.73-.648-1.853-.973-3.368-.973h-5.072v7.425Zm5.437 11.97c1.515 0 2.678-.324 3.49-.973.812-.677 1.217-1.65 1.217-2.922 0-1.271-.419-2.245-1.258-2.921-.811-.704-1.974-1.055-3.489-1.055h-5.397v7.871h5.437Zm23.364-18.097c1.893 0 3.516.447 4.869 1.34a7.29 7.29 0 0 1 2.881 3.61v-4.666h5.681v22.48h-5.681V53.2c-.568 1.515-1.528 2.732-2.881 3.652-1.353.892-2.976 1.339-4.869 1.339-1.894 0-3.598-.46-5.113-1.38-1.515-.92-2.705-2.245-3.571-3.976-.838-1.759-1.257-3.815-1.257-6.168s.419-4.396 1.257-6.127c.866-1.758 2.056-3.097 3.571-4.017 1.515-.92 3.219-1.38 5.113-1.38Zm1.785 4.991c-1.785 0-3.219.582-4.301 1.745-1.082 1.163-1.623 2.76-1.623 4.788 0 2.029.541 3.625 1.623 4.788 1.082 1.136 2.516 1.704 4.301 1.704 1.731 0 3.152-.581 4.261-1.745 1.136-1.19 1.704-2.772 1.704-4.747 0-2.002-.568-3.584-1.704-4.747-1.109-1.19-2.53-1.786-4.261-1.786Zm30.221-5.031c2.596 0 4.666.852 6.208 2.556 1.542 1.704 2.313 4.098 2.313 7.182v13.066h-5.681V45.49c0-1.785-.46-3.165-1.38-4.138-.919-1.001-2.177-1.502-3.773-1.502-1.623 0-2.922.528-3.896 1.583-.973 1.055-1.46 2.57-1.46 4.544v11.93h-5.722v-22.48h5.722v4.504c.595-1.514 1.569-2.691 2.921-3.53 1.38-.865 2.962-1.298 4.748-1.298Zm26.701 22.804-7.425-9.82v9.82h-5.721V27.88h5.721v16.88l7.385-9.332h6.776l-9.454 11.199 9.697 11.28h-6.979Z" fill="#5CE1E6"/><path d="M36.068 0a36.068 36.068 0 1 0 36.068 36.068H54.102a18.034 18.034 0 1 1-18.034-18.034V0Z" fill="#fff"/><path d="M36.068 0A36.068 36.068 0 0 0 0 36.068h18.034a18.036 18.036 0 0 1 18.034-18.034V0Z" fill="#5CE1E6"/><circle cx="36.068" cy="36.068" r="11.271" fill="#5CE1E6"/><path d="M47.339 36.068a11.27 11.27 0 1 0-22.542 0h22.542Z" fill="#fff"/></svg>