<svg width="33" height="32" viewBox="0 0 33 32" fill="none" xmlns="http://www.w3.org/2000/svg"><path d="M31.497.931a3.093 3.093 0 0 0-3.09-.805L2.653 7.616C1.488 7.938.662 8.867.439 10.048c-.227 1.201.567 2.727 1.604 3.365l8.053 4.949c.826.507 1.892.38 2.575-.31l9.222-9.278a1.174 1.174 0 0 1 1.696 0 1.22 1.22 0 0 1 0 1.707l-9.237 9.28a2.118 2.118 0 0 0-.309 2.59l4.92 8.134A3.056 3.056 0 0 0 21.622 32c.128 0 .272 0 .4-.016 1.248-.161 2.24-1.015 2.609-2.223L32.265 4.04a3.143 3.143 0 0 0-.768-3.11" fill="#00F6FF"/></svg>