<svg width="28" height="32" viewBox="0 0 28 32" fill="none" xmlns="http://www.w3.org/2000/svg"><path fill-rule="evenodd" clip-rule="evenodd" d="M13.565 31.862c.177.092.375.14.573.138a1.25 1.25 0 0 0 .574-.144l5.708-3.052c1.62-.863 2.887-1.828 3.876-2.951A13.192 13.192 0 0 0 27.6 17.06l-.068-10.625c-.006-1.224-.81-2.316-1.999-2.713L14.913.16a3.022 3.022 0 0 0-1.968.011L2.365 3.86C1.183 4.274.394 5.373.4 6.598l.068 10.617a13.197 13.197 0 0 0 3.42 8.759c1 1.107 2.279 2.058 3.915 2.907l5.762 2.98Zm-1.511-12.488c.238.23.547.342.857.34.309-.002.617-.118.852-.35L20 13.212a1.155 1.155 0 0 0-.01-1.663 1.231 1.231 0 0 0-1.708.01l-5.39 5.312-2.207-2.121a1.231 1.231 0 0 0-1.709.01 1.154 1.154 0 0 0 .011 1.664l3.066 2.95Z" fill="#00F6FF"/></svg>