<svg width="33" height="32" viewBox="0 0 33 32" fill="none" xmlns="http://www.w3.org/2000/svg"><path d="M25.47 19.712a1.761 1.761 0 0 0-.51 1.552l1.422 7.872a1.728 1.728 0 0 1-.72 1.728c-.548.4-1.276.448-1.872.128l-7.087-3.696a1.81 1.81 0 0 0-.8-.21h-.433c-.15.023-.298.071-.432.145L7.95 30.944c-.35.176-.748.239-1.136.176a1.778 1.778 0 0 1-1.424-2.033l1.424-7.872a1.79 1.79 0 0 0-.51-1.567l-5.778-5.6a1.727 1.727 0 0 1-.43-1.808 1.797 1.797 0 0 1 1.422-1.2L9.47 9.887a1.78 1.78 0 0 0 1.408-.975l3.504-7.184c.083-.16.19-.307.32-.432l.144-.112c.075-.083.161-.152.257-.208l.175-.064L15.55.8h.673a1.79 1.79 0 0 1 1.408.96l3.55 7.152c.257.523.754.887 1.329.975l7.952 1.153c.672.096 1.233.56 1.456 1.2.21.642.028 1.346-.464 1.808l-5.984 5.664Z" fill="#00F6FF"/></svg>