<svg width="23" height="19" viewBox="0 0 23 19" fill="none" xmlns="http://www.w3.org/2000/svg"><path d="M23 2.25a9.704 9.704 0 0 1-2.717.756 4.754 4.754 0 0 0 2.074-2.65 9.329 9.329 0 0 1-2.99 1.161A4.689 4.689 0 0 0 15.923 0c-2.61 0-4.712 2.154-4.712 4.795a5 5 0 0 0 .11 1.094C7.4 5.694 3.93 3.784 1.6.874a4.888 4.888 0 0 0-.645 2.423c0 1.66.84 3.132 2.094 3.984a4.598 4.598 0 0 1-2.13-.59v.053c0 2.33 1.634 4.264 3.778 4.71a4.633 4.633 0 0 1-1.237.158 4.12 4.12 0 0 1-.892-.082c.61 1.899 2.344 3.294 4.406 3.34a9.376 9.376 0 0 1-5.847 2.044c-.386 0-.757-.017-1.128-.065A13.116 13.116 0 0 0 7.234 19c8.676 0 13.42-7.308 13.42-13.642 0-.212-.007-.417-.017-.62A9.493 9.493 0 0 0 23 2.25Z" fill="#fff"/></svg>